<?xml version="1.0" encoding="utf-8" standalone="no"?>
<!DOCTYPE svg PUBLIC "-//W3C//DTD SVG 1.1//EN"
  "http://www.w3.org/Graphics/SVG/1.1/DTD/svg11.dtd">
<svg xmlns:xlink="http://www.w3.org/1999/xlink" width="564.283774pt" height="533.905049pt" viewBox="0 0 564.283774 533.905049" xmlns="http://www.w3.org/2000/svg" version="1.1">
 <metadata>
  <rdf:RDF xmlns:dc="http://purl.org/dc/elements/1.1/" xmlns:cc="http://creativecommons.org/ns#" xmlns:rdf="http://www.w3.org/1999/02/22-rdf-syntax-ns#">
   <cc:Work>
    <dc:type rdf:resource="http://purl.org/dc/dcmitype/StillImage"/>
    <dc:date>2025-10-20T11:11:50.295801</dc:date>
    <dc:format>image/svg+xml</dc:format>
    <dc:creator>
     <cc:Agent>
      <dc:title>Matplotlib v3.10.6, https://matplotlib.org/</dc:title>
     </cc:Agent>
    </dc:creator>
   </cc:Work>
  </rdf:RDF>
 </metadata>
 <defs>
  <style type="text/css">*{stroke-linejoin: round; stroke-linecap: butt}</style>
 </defs>
 <g id="figure_1">
  <g id="patch_1">
   <path d="M 0 533.905049 
L 564.283774 533.905049 
L 564.283774 0 
L 0 0 
z
" style="fill: #ffffff"/>
  </g>
  <g id="axes_1">
   <g id="patch_2">
    <path d="M 132.716948 176.797561 
C 140.64254 176.797561 148.244586 173.64869 153.848826 168.044451 
C 159.453065 162.440211 162.601936 154.838165 162.601936 146.912573 
C 162.601936 138.986982 159.453065 131.384935 153.848826 125.780696 
C 148.244586 120.176457 140.64254 117.027586 132.716948 117.027586 
C 124.791357 117.027586 117.18931 120.176457 111.585071 125.780696 
C 105.980832 131.384935 102.831961 138.986982 102.831961 146.912573 
C 102.831961 154.838165 105.980832 162.440211 111.585071 168.044451 
C 117.18931 173.64869 124.791357 176.797561 132.716948 176.797561 
z
" clip-path="url(#p1bf6b238b0)" style="fill: #cd5c5c"/>
   </g>
   <g id="patch_3">
    <path d="M 132.716948 176.797561 
C 140.64254 176.797561 148.244586 173.64869 153.848826 168.044451 
C 159.453065 162.440211 162.601936 154.838165 162.601936 146.912573 
C 162.601936 138.986982 159.453065 131.384935 153.848826 125.780696 
C 148.244586 120.176457 140.64254 117.027586 132.716948 117.027586 
C 124.791357 117.027586 117.18931 120.176457 111.585071 125.780696 
C 105.980832 131.384935 102.831961 138.986982 102.831961 146.912573 
C 102.831961 154.838165 105.980832 162.440211 111.585071 168.044451 
C 117.18931 173.64869 124.791357 176.797561 132.716948 176.797561 
L 132.716948 176.797561 
z
" clip-path="url(#p1bf6b238b0)" style="fill: none; stroke: #ffffff; stroke-width: 2.5; stroke-linejoin: miter"/>
   </g>
   <g id="patch_4">
    <path d="M 116.996089 114.680035 
C 77.69394 34.098687 7.505753 155.668193 96.942321 149.414179 
" clip-path="url(#p1bf6b238b0)" style="fill: none; stroke: #000000; stroke-width: 2.5; stroke-linejoin: miter"/>
   </g>
   <g id="patch_5">
    <path d="M 431.566826 176.797561 
C 439.492417 176.797561 447.094464 173.64869 452.698703 168.044451 
C 458.302942 162.440211 461.451813 154.838165 461.451813 146.912573 
C 461.451813 138.986982 458.302942 131.384935 452.698703 125.780696 
C 447.094464 120.176457 439.492417 117.027586 431.566826 117.027586 
C 423.641234 117.027586 416.039187 120.176457 410.434948 125.780696 
C 404.830709 131.384935 401.681838 138.986982 401.681838 146.912573 
C 401.681838 154.838165 404.830709 162.440211 410.434948 168.044451 
C 416.039187 173.64869 423.641234 176.797561 431.566826 176.797561 
z
" clip-path="url(#p1bf6b238b0)" style="fill: #6495ed"/>
   </g>
   <g id="patch_6">
    <path d="M 431.566826 176.797561 
C 439.492417 176.797561 447.094464 173.64869 452.698703 168.044451 
C 458.302942 162.440211 461.451813 154.838165 461.451813 146.912573 
C 461.451813 138.986982 458.302942 131.384935 452.698703 125.780696 
C 447.094464 120.176457 439.492417 117.027586 431.566826 117.027586 
C 423.641234 117.027586 416.039187 120.176457 410.434948 125.780696 
C 404.830709 131.384935 401.681838 138.986982 401.681838 146.912573 
C 401.681838 154.838165 404.830709 162.440211 410.434948 168.044451 
C 416.039187 173.64869 423.641234 176.797561 431.566826 176.797561 
L 431.566826 176.797561 
z
" clip-path="url(#p1bf6b238b0)" style="fill: none; stroke: #ffffff; stroke-width: 2.5; stroke-linejoin: miter"/>
   </g>
   <g id="patch_7">
    <path d="M 467.341453 149.414179 
C 556.778021 155.668193 486.589834 34.098687 447.287685 114.680035 
" clip-path="url(#p1bf6b238b0)" style="fill: none; stroke: #000000; stroke-width: 2.5; stroke-linejoin: miter"/>
   </g>
   <g id="patch_8">
    <path d="M 282.141887 430.819957 
C 290.067478 430.819957 297.669525 427.671086 303.273764 422.066846 
C 308.878004 416.462607 312.026875 408.86056 312.026875 400.934969 
C 312.026875 393.009378 308.878004 385.407331 303.273764 379.803091 
C 297.669525 374.198852 290.067478 371.049981 282.141887 371.049981 
C 274.216296 371.049981 266.614249 374.198852 261.010009 379.803091 
C 255.40577 385.407331 252.256899 393.009378 252.256899 400.934969 
C 252.256899 408.86056 255.40577 416.462607 261.010009 422.066846 
C 266.614249 427.671086 274.216296 430.819957 282.141887 430.819957 
z
" clip-path="url(#p1bf6b238b0)" style="fill: #8fbc8f"/>
   </g>
   <g id="patch_9">
    <path d="M 282.141887 430.819957 
C 290.067478 430.819957 297.669525 427.671086 303.273764 422.066846 
C 308.878004 416.462607 312.026875 408.86056 312.026875 400.934969 
C 312.026875 393.009378 308.878004 385.407331 303.273764 379.803091 
C 297.669525 374.198852 290.067478 371.049981 282.141887 371.049981 
C 274.216296 371.049981 266.614249 374.198852 261.010009 379.803091 
C 255.40577 385.407331 252.256899 393.009378 252.256899 400.934969 
C 252.256899 408.86056 255.40577 416.462607 261.010009 422.066846 
C 266.614249 427.671086 274.216296 430.819957 282.141887 430.819957 
L 282.141887 430.819957 
z
" clip-path="url(#p1bf6b238b0)" style="fill: none; stroke: #ffffff; stroke-width: 2.5; stroke-linejoin: miter"/>
   </g>
   <g id="patch_10">
    <path d="M 262.088119 430.665902 
C 211.9537 504.993235 352.330074 504.993235 302.195655 430.665902 
" clip-path="url(#p1bf6b238b0)" style="fill: none; stroke: #000000; stroke-width: 2.5; stroke-linejoin: miter"/>
   </g>
   <g id="patch_11">
    <path d="M 164.309989 135.413647 
C 216.965056 116.24877 347.318718 116.24877 399.973785 135.413647 
" clip-path="url(#p1bf6b238b0)" style="fill: none; stroke: #000000; stroke-width: 3; stroke-linejoin: miter"/>
   </g>
   <g id="patch_12">
    <path d="M 399.973785 158.4115 
C 347.318718 177.576377 216.965056 177.576377 164.309989 158.4115 
" clip-path="url(#p1bf6b238b0)" style="fill: none; stroke: #000000; stroke-width: 3; stroke-linejoin: miter"/>
   </g>
   <g id="patch_13">
    <path d="M 425.459836 179.973883 
C 415.422448 234.313128 350.689191 344.359665 308.071512 379.534034 
" clip-path="url(#p1bf6b238b0)" style="fill: none; stroke: #000000; stroke-width: 3; stroke-linejoin: miter"/>
   </g>
   <g id="patch_14">
    <path d="M 288.248876 367.87366 
C 298.286264 313.534414 363.019521 203.487877 405.6372 168.313509 
" clip-path="url(#p1bf6b238b0)" style="fill: none; stroke: #000000; stroke-width: 3; stroke-linejoin: miter"/>
   </g>
   <g id="patch_15">
    <path d="M 256.212262 379.534034 
C 213.594583 344.359665 148.861326 234.313128 138.823938 179.973883 
" clip-path="url(#p1bf6b238b0)" style="fill: none; stroke: #000000; stroke-width: 3; stroke-linejoin: miter"/>
   </g>
   <g id="patch_16">
    <path d="M 158.646574 168.313509 
C 201.264253 203.487877 265.99751 313.534414 276.034898 367.87366 
" clip-path="url(#p1bf6b238b0)" style="fill: none; stroke: #000000; stroke-width: 3; stroke-linejoin: miter"/>
   </g>
   <g id="line2d_1">
    <path d="M 88.219134 145.159597 
L 96.942321 149.414179 
L 88.896151 154.841389 
" clip-path="url(#p1bf6b238b0)" style="fill: none; stroke: #000000; stroke-width: 2; stroke-linecap: square"/>
   </g>
   <g id="line2d_2">
    <path d="M 455.333855 109.252824 
L 447.287685 114.680035 
L 446.610668 104.998242 
" clip-path="url(#p1bf6b238b0)" style="fill: none; stroke: #000000; stroke-width: 2; stroke-linecap: square"/>
   </g>
   <g id="line2d_3">
    <path d="M 302.872671 440.347695 
L 302.195655 430.665902 
L 310.918841 434.920485 
" clip-path="url(#p1bf6b238b0)" style="fill: none; stroke: #000000; stroke-width: 2; stroke-linecap: square"/>
   </g>
   <g id="line2d_4">
    <path d="M 394.844866 130.795547 
L 399.973785 135.413647 
L 393.409933 137.546372 
" clip-path="url(#p1bf6b238b0)" style="fill: none; stroke: #000000; stroke-width: 2.4; stroke-linecap: square"/>
   </g>
   <g id="line2d_5">
    <path d="M 169.438908 163.0296 
L 164.309989 158.4115 
L 170.87384 156.278775 
" clip-path="url(#p1bf6b238b0)" style="fill: none; stroke: #000000; stroke-width: 2.4; stroke-linecap: square"/>
   </g>
   <g id="line2d_6">
    <path d="M 314.652476 377.454712 
L 308.071512 379.534034 
L 309.561249 372.795091 
" clip-path="url(#p1bf6b238b0)" style="fill: none; stroke: #000000; stroke-width: 2.4; stroke-linecap: square"/>
   </g>
   <g id="line2d_7">
    <path d="M 399.056236 170.39283 
L 405.6372 168.313509 
L 404.147464 175.052452 
" clip-path="url(#p1bf6b238b0)" style="fill: none; stroke: #000000; stroke-width: 2.4; stroke-linecap: square"/>
   </g>
   <g id="line2d_8">
    <path d="M 137.443905 186.736144 
L 138.823938 179.973883 
L 143.990211 184.550157 
" clip-path="url(#p1bf6b238b0)" style="fill: none; stroke: #000000; stroke-width: 2.4; stroke-linecap: square"/>
   </g>
   <g id="line2d_9">
    <path d="M 277.414931 361.111398 
L 276.034898 367.87366 
L 270.868624 363.297385 
" clip-path="url(#p1bf6b238b0)" style="fill: none; stroke: #000000; stroke-width: 2.4; stroke-linecap: square"/>
   </g>
   <g id="text_1">
    <!-- $\mathbf{\mathsf{A}}$ -->
    <g style="fill: #ffffff" transform="translate(122.996948 153.476215) scale(0.281739 -0.281739)">
     <defs>
      <path id="STIXGeneral-Bold-1d5d4" d="M 4256 0 
L 3424 0 
L 3002 1037 
L 1414 1037 
L 992 0 
L 160 0 
L 2118 4416 
L 2298 4416 
L 4256 0 
z
M 2739 1690 
L 2208 2995 
L 1677 1690 
L 2739 1690 
z
" transform="scale(0.015625)"/>
     </defs>
     <use xlink:href="#STIXGeneral-Bold-1d5d4"/>
    </g>
   </g>
   <g id="text_2">
    <!-- $\Delta_{A}$ -->
    <g transform="translate(11.665821 103.269435) scale(0.281739 -0.281739)">
     <defs>
      <path id="STIXGeneral-Regular-394" d="M 4320 0 
L 307 0 
L 2221 4314 
L 2349 4314 
L 4320 0 
z
M 3354 589 
L 2118 3405 
L 870 589 
L 3354 589 
z
" transform="scale(0.015625)"/>
      <path id="STIXGeneral-Italic-41" d="M 3610 0 
L 2042 0 
L 2042 102 
Q 2330 115 2432 192 
Q 2534 269 2534 442 
Q 2534 493 2522 608 
L 2394 1446 
L 986 1446 
L 608 736 
Q 467 474 467 314 
Q 467 122 864 102 
L 864 0 
L -326 0 
L -326 102 
Q -109 147 28 307 
Q 166 467 531 1101 
L 2355 4275 
L 2522 4275 
L 3110 736 
Q 3174 339 3264 230 
Q 3354 122 3610 102 
L 3610 0 
z
M 2362 1677 
L 2074 3360 
L 1120 1677 
L 2362 1677 
z
" transform="scale(0.015625)"/>
     </defs>
     <use xlink:href="#STIXGeneral-Regular-394" transform="translate(0 0.59375)"/>
     <use xlink:href="#STIXGeneral-Italic-41" transform="translate(73.743263 -12.634375) scale(0.7)"/>
    </g>
   </g>
   <g id="text_3">
    <!-- $\mathbf{\mathsf{B}}$ -->
    <g style="fill: #ffffff" transform="translate(422.551173 153.476215) scale(0.281739 -0.281739)">
     <defs>
      <path id="STIXGeneral-Bold-1d5d5" d="M 2963 2387 
L 2970 2362 
Q 3450 2131 3626 1852 
Q 3802 1574 3802 1203 
Q 3802 685 3334 342 
Q 2867 0 2176 0 
L 512 0 
L 512 4326 
L 2029 4326 
Q 2784 4326 3181 4051 
Q 3578 3776 3578 3251 
Q 3578 2989 3418 2755 
Q 3258 2522 2963 2387 
z
M 1331 2643 
L 1792 2643 
Q 2694 2643 2694 3213 
Q 2694 3450 2547 3562 
Q 2400 3674 2054 3674 
L 1331 3674 
L 1331 2643 
z
M 1331 653 
L 1990 653 
Q 2502 653 2697 838 
Q 2893 1024 2893 1350 
Q 2893 1683 2576 1836 
Q 2259 1990 1811 1990 
L 1331 1990 
L 1331 653 
z
" transform="scale(0.015625)"/>
     </defs>
     <use xlink:href="#STIXGeneral-Bold-1d5d5" transform="translate(0 0.40625)"/>
    </g>
   </g>
   <g id="text_4">
    <!-- $\Delta_{B}$ -->
    <g transform="translate(518.527518 103.269435) scale(0.281739 -0.281739)">
     <defs>
      <path id="STIXGeneral-Italic-42" d="M 832 4179 
L 2432 4179 
Q 3763 4179 3763 3219 
Q 3763 2771 3354 2496 
Q 3136 2349 2643 2246 
L 2643 2240 
Q 3450 1997 3450 1280 
Q 3450 653 2973 326 
Q 2496 0 1690 0 
L -51 0 
L -51 102 
Q 211 141 304 230 
Q 397 320 480 614 
L 1254 3405 
Q 1325 3654 1325 3814 
Q 1325 3955 1229 4003 
Q 1133 4051 832 4077 
L 832 4179 
z
M 1587 2323 
L 1830 2323 
Q 2458 2323 2787 2572 
Q 3117 2822 3117 3296 
Q 3117 3654 2937 3820 
Q 2758 3987 2368 3987 
Q 2221 3987 2166 3977 
Q 2112 3968 2067 3920 
Q 2022 3872 1990 3757 
L 1587 2323 
z
M 1523 2118 
L 1318 1357 
Q 1094 506 1094 461 
Q 1094 192 1523 192 
Q 2086 192 2422 473 
Q 2758 755 2758 1280 
Q 2758 1568 2636 1773 
Q 2515 1978 2330 2042 
Q 2112 2118 1523 2118 
z
" transform="scale(0.015625)"/>
     </defs>
     <use xlink:href="#STIXGeneral-Regular-394" transform="translate(0 0.59375)"/>
     <use xlink:href="#STIXGeneral-Italic-42" transform="translate(73.743263 -12.634375) scale(0.7)"/>
    </g>
   </g>
   <g id="text_5">
    <!-- $\mathbf{\mathsf{C}}$ -->
    <g style="fill: #ffffff" transform="translate(271.858409 407.49861) scale(0.281739 -0.281739)">
     <defs>
      <path id="STIXGeneral-Bold-1d5d6" d="M 3962 1235 
L 4403 800 
Q 3667 -122 2579 -122 
Q 1530 -122 922 521 
Q 314 1165 314 2176 
Q 314 3149 938 3785 
Q 1562 4422 2573 4422 
Q 3085 4422 3472 4294 
Q 3859 4166 4154 3821 
L 4154 2867 
L 4083 2867 
Q 3622 3770 2688 3770 
Q 2042 3770 1619 3344 
Q 1197 2918 1197 2189 
Q 1197 1517 1558 1024 
Q 1920 531 2592 531 
Q 2995 531 3305 694 
Q 3616 858 3962 1235 
z
" transform="scale(0.015625)"/>
     </defs>
     <use xlink:href="#STIXGeneral-Bold-1d5d6" transform="translate(0 0.90625)"/>
    </g>
   </g>
   <g id="text_6">
    <!-- $\Delta_{C}$ -->
    <g transform="translate(264.533191 520.59043) scale(0.281739 -0.281739)">
     <defs>
      <path id="STIXGeneral-Italic-43" d="M 4410 4250 
L 4173 2970 
L 4058 2989 
Q 3942 4032 3104 4032 
Q 2406 4032 1830 3411 
Q 1491 3053 1315 2541 
Q 1139 2029 1139 1485 
Q 1139 173 2259 173 
Q 2656 173 2985 339 
Q 3315 506 3725 934 
L 3840 838 
Q 3411 333 2998 109 
Q 2586 -115 2093 -115 
Q 1344 -115 883 329 
Q 422 774 422 1555 
Q 422 2214 748 2812 
Q 1075 3411 1619 3795 
Q 2272 4262 3021 4262 
Q 3462 4262 3770 4154 
Q 3898 4109 4032 4109 
Q 4205 4109 4275 4250 
L 4410 4250 
z
" transform="scale(0.015625)"/>
     </defs>
     <use xlink:href="#STIXGeneral-Regular-394" transform="translate(0 0.59375)"/>
     <use xlink:href="#STIXGeneral-Italic-43" transform="translate(73.743263 -12.634375) scale(0.7)"/>
    </g>
   </g>
   <g id="text_7">
    <!-- $\beta_{BA}$ -->
    <g transform="translate(263.603452 100.73991) scale(0.262957 -0.262957)">
     <defs>
      <path id="STIXGeneral-Italic-3b2" d="M -58 -813 
L 819 2355 
Q 902 2662 995 2908 
Q 1088 3155 1235 3433 
Q 1382 3712 1555 3901 
Q 1728 4090 1977 4214 
Q 2227 4339 2515 4339 
Q 2816 4339 3053 4182 
Q 3290 4026 3290 3693 
Q 3290 3328 3037 3001 
Q 2784 2675 2470 2534 
L 2470 2528 
Q 2682 2509 2858 2320 
Q 3034 2131 3034 1818 
Q 3034 1376 2694 873 
Q 2355 371 1901 122 
Q 1562 -70 1107 -70 
Q 922 -70 685 38 
L 442 -813 
Q 352 -1126 243 -1312 
L -256 -1312 
Q -154 -1158 -58 -813 
z
M 1491 3053 
L 762 288 
Q 762 186 848 118 
Q 934 51 1069 51 
Q 1594 51 2029 704 
Q 2464 1357 2464 2029 
Q 2464 2406 2208 2406 
Q 2150 2406 2044 2380 
Q 1939 2355 1888 2355 
Q 1805 2355 1750 2396 
Q 1696 2438 1696 2496 
Q 1696 2650 1978 2650 
Q 1997 2650 2099 2630 
Q 2202 2611 2253 2611 
Q 2451 2611 2640 2969 
Q 2829 3328 2829 3622 
Q 2829 3962 2713 4083 
Q 2598 4205 2400 4205 
Q 2080 4205 1846 3865 
Q 1613 3526 1491 3053 
z
" transform="scale(0.015625)"/>
     </defs>
     <use xlink:href="#STIXGeneral-Italic-3b2" transform="translate(0 0.203125)"/>
     <use xlink:href="#STIXGeneral-Italic-42" transform="translate(50.599991 -13.025) scale(0.7)"/>
     <use xlink:href="#STIXGeneral-Italic-41" transform="translate(93.369984 -13.025) scale(0.7)"/>
    </g>
   </g>
   <g id="text_8">
    <!-- $\beta_{BA}^*$ -->
    <g transform="translate(263.603452 206.574084) scale(0.262957 -0.262957)">
     <defs>
      <path id="STIXGeneral-Regular-2a" d="M 1715 3014 
L 1773 2976 
Q 2010 2822 2387 2758 
Q 2605 2726 2688 2665 
Q 2771 2605 2771 2483 
Q 2771 2374 2707 2304 
Q 2643 2234 2541 2234 
Q 2381 2234 2157 2515 
Q 2010 2694 1715 2886 
L 1664 2918 
L 1664 2861 
Q 1664 2502 1792 2157 
Q 1850 1997 1850 1946 
Q 1850 1850 1770 1773 
Q 1690 1696 1594 1696 
Q 1504 1696 1433 1766 
Q 1363 1837 1363 1926 
Q 1363 2016 1440 2227 
Q 1542 2502 1542 2861 
L 1542 2918 
Q 1286 2758 1210 2688 
Q 1133 2611 947 2400 
Q 806 2240 672 2240 
Q 563 2240 499 2304 
Q 435 2368 435 2470 
Q 435 2592 528 2656 
Q 621 2720 838 2758 
Q 1062 2803 1180 2848 
Q 1299 2893 1498 3014 
Q 1222 3181 877 3251 
Q 640 3302 544 3366 
Q 448 3430 448 3546 
Q 448 3648 505 3715 
Q 563 3782 659 3782 
Q 787 3782 973 3578 
Q 1242 3277 1542 3110 
L 1542 3194 
Q 1542 3456 1446 3776 
Q 1376 3987 1376 4109 
Q 1376 4198 1443 4262 
Q 1510 4326 1606 4326 
Q 1702 4326 1772 4259 
Q 1843 4192 1843 4096 
Q 1843 3994 1773 3795 
Q 1664 3507 1664 3264 
L 1664 3110 
Q 1882 3238 2035 3379 
Q 2067 3411 2153 3504 
Q 2240 3597 2291 3648 
Q 2342 3699 2409 3747 
Q 2477 3795 2528 3795 
Q 2637 3795 2701 3728 
Q 2765 3661 2765 3552 
Q 2765 3424 2691 3363 
Q 2618 3302 2432 3277 
Q 2074 3219 1715 3014 
z
" transform="scale(0.015625)"/>
     </defs>
     <use xlink:href="#STIXGeneral-Italic-3b2" transform="translate(0 0.409375)"/>
     <use xlink:href="#STIXGeneral-Regular-2a" transform="translate(71.85877 35.684375) scale(0.7)"/>
     <use xlink:href="#STIXGeneral-Italic-42" transform="translate(50.599991 -26.046875) scale(0.7)"/>
     <use xlink:href="#STIXGeneral-Italic-41" transform="translate(93.369984 -26.046875) scale(0.7)"/>
    </g>
   </g>
   <g id="text_9">
    <!-- $\beta_{CB}$ -->
    <g transform="translate(382.868072 306.566344) scale(0.262957 -0.262957)">
     <use xlink:href="#STIXGeneral-Italic-3b2" transform="translate(0 0.203125)"/>
     <use xlink:href="#STIXGeneral-Italic-43" transform="translate(50.599991 -13.025) scale(0.7)"/>
     <use xlink:href="#STIXGeneral-Italic-42" transform="translate(97.289989 -13.025) scale(0.7)"/>
    </g>
   </g>
   <g id="text_10">
    <!-- $\beta_{CB}^*$ -->
    <g transform="translate(292.711945 254.638568) scale(0.262957 -0.262957)">
     <use xlink:href="#STIXGeneral-Italic-3b2" transform="translate(0 0.409375)"/>
     <use xlink:href="#STIXGeneral-Regular-2a" transform="translate(71.85877 35.684375) scale(0.7)"/>
     <use xlink:href="#STIXGeneral-Italic-43" transform="translate(50.599991 -26.046875) scale(0.7)"/>
     <use xlink:href="#STIXGeneral-Italic-42" transform="translate(97.289989 -26.046875) scale(0.7)"/>
    </g>
   </g>
   <g id="text_11">
    <!-- $\beta_{AC}$ -->
    <g transform="translate(143.287006 306.566344) scale(0.262957 -0.262957)">
     <use xlink:href="#STIXGeneral-Italic-3b2" transform="translate(0 0.203125)"/>
     <use xlink:href="#STIXGeneral-Italic-41" transform="translate(50.599991 -13.025) scale(0.7)"/>
     <use xlink:href="#STIXGeneral-Italic-43" transform="translate(93.369984 -13.025) scale(0.7)"/>
    </g>
   </g>
   <g id="text_12">
    <!-- $\beta_{AC}^*$ -->
    <g transform="translate(233.443133 254.638568) scale(0.262957 -0.262957)">
     <use xlink:href="#STIXGeneral-Italic-3b2" transform="translate(0 0.409375)"/>
     <use xlink:href="#STIXGeneral-Regular-2a" transform="translate(71.85877 35.684375) scale(0.7)"/>
     <use xlink:href="#STIXGeneral-Italic-41" transform="translate(50.599991 -26.046875) scale(0.7)"/>
     <use xlink:href="#STIXGeneral-Italic-43" transform="translate(93.369984 -26.046875) scale(0.7)"/>
    </g>
   </g>
   <g id="text_13">
    <!-- Simple Three-Node Graph -->
    <g transform="translate(218.157512 15.395625) scale(0.12 -0.12)">
     <defs>
      <path id="STIXGeneral-Regular-53" d="M 3002 2963 
L 2842 2963 
Q 2733 3360 2579 3565 
Q 2189 4064 1651 4064 
Q 1357 4064 1181 3894 
Q 1005 3725 1005 3456 
Q 1005 3328 1069 3206 
Q 1133 3085 1206 2998 
Q 1280 2912 1465 2784 
Q 1651 2656 1766 2589 
Q 1882 2522 2150 2362 
Q 2669 2061 2905 1763 
Q 3142 1466 3142 1107 
Q 3142 576 2771 243 
Q 2400 -90 1837 -90 
Q 1421 -90 1082 58 
Q 915 128 781 128 
Q 704 128 653 70 
Q 602 13 602 -83 
L 461 -83 
L 275 1274 
L 416 1274 
Q 845 141 1734 141 
Q 2074 141 2285 342 
Q 2496 544 2496 858 
Q 2496 1158 2310 1363 
Q 2003 1696 1235 2106 
Q 454 2522 454 3206 
Q 454 3718 768 4022 
Q 1082 4326 1568 4326 
Q 1907 4326 2240 4186 
Q 2413 4109 2522 4109 
Q 2688 4109 2726 4326 
L 2861 4326 
L 3002 2963 
z
" transform="scale(0.015625)"/>
      <path id="STIXGeneral-Regular-69" d="M 1152 4045 
Q 1152 3904 1056 3811 
Q 960 3718 819 3718 
Q 685 3718 592 3811 
Q 499 3904 499 4045 
Q 499 4179 595 4275 
Q 691 4371 826 4371 
Q 966 4371 1059 4275 
Q 1152 4179 1152 4045 
z
M 1619 0 
L 102 0 
L 102 96 
Q 435 115 521 211 
Q 608 307 608 666 
L 608 2118 
Q 608 2342 563 2432 
Q 518 2522 397 2522 
Q 243 2522 128 2490 
L 128 2592 
L 1120 2944 
L 1146 2918 
L 1146 672 
Q 1146 314 1226 218 
Q 1306 122 1619 96 
L 1619 0 
z
" transform="scale(0.015625)"/>
      <path id="STIXGeneral-Regular-6d" d="M 4960 0 
L 3565 0 
L 3565 96 
Q 3834 122 3907 208 
Q 3981 294 3981 576 
L 3981 1894 
Q 3981 2278 3869 2444 
Q 3757 2611 3488 2611 
Q 3264 2611 3107 2521 
Q 2950 2432 2803 2221 
L 2803 608 
Q 2803 301 2896 201 
Q 2989 102 3264 96 
L 3264 0 
L 1830 0 
L 1830 96 
Q 2112 115 2189 188 
Q 2266 262 2266 550 
L 2266 1901 
Q 2266 2611 1850 2611 
Q 1670 2611 1468 2531 
Q 1267 2451 1171 2336 
Q 1088 2240 1088 2227 
L 1088 448 
Q 1088 243 1177 176 
Q 1267 109 1523 96 
L 1523 0 
L 102 0 
L 102 96 
Q 371 102 460 195 
Q 550 288 550 563 
L 550 2150 
Q 550 2387 499 2480 
Q 448 2573 326 2573 
Q 230 2573 122 2547 
L 122 2656 
Q 557 2778 1011 2944 
L 1062 2925 
L 1062 2451 
L 1075 2451 
Q 1363 2752 1584 2848 
Q 1805 2944 2054 2944 
Q 2560 2944 2733 2406 
Q 3232 2944 3776 2944 
Q 4518 2944 4518 1792 
L 4518 493 
Q 4518 282 4582 202 
Q 4646 122 4794 109 
L 4960 96 
L 4960 0 
z
" transform="scale(0.015625)"/>
      <path id="STIXGeneral-Regular-70" d="M 1018 2931 
L 1018 2438 
Q 1421 2944 1939 2944 
Q 2406 2944 2707 2560 
Q 3008 2176 3008 1581 
Q 3008 883 2621 409 
Q 2234 -64 1664 -64 
Q 1466 -64 1328 -6 
Q 1190 51 1018 211 
L 1018 -794 
Q 1018 -1094 1120 -1180 
Q 1222 -1267 1581 -1274 
L 1581 -1389 
L 32 -1389 
L 32 -1280 
Q 314 -1254 397 -1171 
Q 480 -1088 480 -838 
L 480 2157 
Q 480 2381 429 2451 
Q 378 2522 218 2522 
Q 115 2522 58 2515 
L 58 2618 
Q 506 2752 979 2944 
L 1018 2931 
z
M 1018 2138 
L 1018 563 
Q 1018 422 1238 281 
Q 1459 141 1683 141 
Q 2029 141 2243 467 
Q 2458 794 2458 1325 
Q 2458 1888 2243 2224 
Q 2029 2560 1670 2560 
Q 1446 2560 1232 2419 
Q 1018 2278 1018 2138 
z
" transform="scale(0.015625)"/>
      <path id="STIXGeneral-Regular-6c" d="M 1645 0 
L 134 0 
L 134 96 
Q 435 122 531 221 
Q 627 320 627 589 
L 627 3590 
Q 627 3821 569 3910 
Q 512 4000 358 4000 
Q 224 4000 122 3987 
L 122 4090 
Q 730 4237 1133 4371 
L 1165 4346 
L 1165 557 
Q 1165 288 1254 201 
Q 1344 115 1645 96 
L 1645 0 
z
" transform="scale(0.015625)"/>
      <path id="STIXGeneral-Regular-65" d="M 2611 1050 
L 2714 1005 
Q 2330 -64 1376 -64 
Q 813 -64 486 329 
Q 160 723 160 1389 
Q 160 2074 525 2509 
Q 890 2944 1485 2944 
Q 2061 2944 2374 2502 
Q 2560 2246 2592 1773 
L 621 1773 
Q 646 1370 700 1158 
Q 755 947 915 730 
Q 1184 378 1626 378 
Q 1939 378 2153 531 
Q 2368 685 2611 1050 
z
M 634 1978 
L 1939 1978 
Q 1882 2381 1750 2547 
Q 1619 2714 1312 2714 
Q 1043 2714 864 2525 
Q 685 2336 634 1978 
z
" transform="scale(0.015625)"/>
      <path id="STIXGeneral-Regular-20" transform="scale(0.015625)"/>
      <path id="STIXGeneral-Regular-54" d="M 3795 3149 
L 3642 3149 
Q 3539 3674 3353 3821 
Q 3168 3968 2656 3968 
L 2278 3968 
L 2278 710 
Q 2278 346 2387 243 
Q 2496 141 2893 122 
L 2893 0 
L 1024 0 
L 1024 122 
Q 1427 147 1526 256 
Q 1626 365 1626 787 
L 1626 3968 
L 1242 3968 
Q 723 3968 540 3817 
Q 358 3667 262 3149 
L 109 3149 
L 154 4237 
L 3750 4237 
L 3795 3149 
z
" transform="scale(0.015625)"/>
      <path id="STIXGeneral-Regular-68" d="M 3117 0 
L 1760 0 
L 1760 96 
Q 2042 128 2118 224 
Q 2195 320 2195 653 
L 2195 1920 
Q 2195 2598 1722 2598 
Q 1530 2598 1370 2508 
Q 1210 2419 1005 2195 
L 1005 653 
Q 1005 320 1081 224 
Q 1158 128 1440 96 
L 1440 0 
L 58 0 
L 58 96 
Q 333 134 400 224 
Q 467 314 467 653 
L 467 3667 
Q 467 3872 406 3933 
Q 346 3994 141 3994 
Q 83 3994 64 3987 
L 64 4090 
L 237 4141 
Q 730 4288 973 4371 
L 1005 4352 
L 1005 2406 
Q 1229 2694 1446 2819 
Q 1664 2944 1946 2944 
Q 2733 2944 2733 1926 
L 2733 653 
Q 2733 320 2793 233 
Q 2854 147 3117 96 
L 3117 0 
z
" transform="scale(0.015625)"/>
      <path id="STIXGeneral-Regular-72" d="M 1024 2931 
L 1024 2342 
Q 1267 2688 1430 2816 
Q 1594 2944 1792 2944 
Q 1958 2944 2051 2854 
Q 2144 2765 2144 2605 
Q 2144 2470 2077 2393 
Q 2010 2317 1894 2317 
Q 1773 2317 1638 2445 
Q 1536 2541 1472 2541 
Q 1338 2541 1181 2355 
Q 1024 2170 1024 2016 
L 1024 576 
Q 1024 301 1133 205 
Q 1242 109 1568 96 
L 1568 0 
L 32 0 
L 32 96 
Q 339 154 412 224 
Q 486 294 486 538 
L 486 2138 
Q 486 2349 438 2435 
Q 390 2522 269 2522 
Q 166 2522 45 2496 
L 45 2598 
Q 448 2726 992 2944 
L 1024 2931 
z
" transform="scale(0.015625)"/>
      <path id="STIXGeneral-Regular-2d" d="M 1824 1242 
L 250 1242 
L 250 1645 
L 1824 1645 
L 1824 1242 
z
" transform="scale(0.015625)"/>
      <path id="STIXGeneral-Regular-4e" d="M 4525 4237 
L 4525 4115 
Q 4198 4083 4102 4000 
Q 4000 3910 3958 3756 
Q 3917 3603 3917 3245 
L 3917 -70 
L 3802 -70 
L 979 3443 
L 979 960 
Q 979 474 1088 323 
Q 1197 173 1574 122 
L 1574 0 
L 77 0 
L 77 122 
Q 474 166 586 310 
Q 698 454 698 960 
L 698 3776 
Q 531 3981 416 4048 
Q 301 4115 77 4115 
L 77 4237 
L 1165 4237 
L 3635 1146 
L 3635 3322 
Q 3635 3808 3514 3949 
Q 3437 4032 3344 4061 
Q 3251 4090 3008 4115 
L 3008 4237 
L 4525 4237 
z
" transform="scale(0.015625)"/>
      <path id="STIXGeneral-Regular-6f" d="M 3008 1478 
Q 3008 806 2608 371 
Q 2208 -64 1568 -64 
Q 979 -64 582 368 
Q 186 800 186 1459 
Q 186 2125 582 2534 
Q 979 2944 1626 2944 
Q 2221 2944 2614 2537 
Q 3008 2131 3008 1478 
z
M 2432 1306 
Q 2432 2035 2112 2445 
Q 1856 2765 1504 2765 
Q 1171 2765 966 2493 
Q 762 2221 762 1747 
Q 762 928 1101 435 
Q 1318 115 1677 115 
Q 2029 115 2230 432 
Q 2432 749 2432 1306 
z
" transform="scale(0.015625)"/>
      <path id="STIXGeneral-Regular-64" d="M 3142 269 
L 2202 -64 
L 2176 -45 
L 2176 365 
Q 1869 -64 1357 -64 
Q 826 -64 499 317 
Q 173 698 173 1312 
Q 173 1990 563 2467 
Q 954 2944 1504 2944 
Q 1850 2944 2176 2669 
L 2176 3667 
Q 2176 3866 2118 3930 
Q 2061 3994 1882 3994 
Q 1792 3994 1741 3987 
L 1741 4090 
Q 2323 4243 2682 4371 
L 2714 4358 
L 2714 730 
Q 2714 506 2768 435 
Q 2822 365 2995 365 
Q 3034 365 3142 371 
L 3142 269 
z
M 2176 653 
L 2176 2125 
Q 2176 2381 1981 2573 
Q 1786 2765 1523 2765 
Q 1158 2765 940 2438 
Q 723 2112 723 1568 
Q 723 979 963 624 
Q 1203 269 1606 269 
Q 1907 269 2080 474 
Q 2176 582 2176 653 
z
" transform="scale(0.015625)"/>
      <path id="STIXGeneral-Regular-47" d="M 4538 2266 
L 4538 2150 
Q 4256 2125 4173 2035 
Q 4090 1946 4090 1638 
L 4090 358 
Q 3539 -90 2464 -90 
Q 1965 -90 1507 89 
Q 1050 269 736 595 
Q 205 1152 205 2093 
Q 205 3155 890 3776 
Q 1491 4326 2419 4326 
Q 2829 4326 3270 4179 
Q 3443 4115 3552 4115 
Q 3654 4115 3731 4176 
Q 3808 4237 3840 4326 
L 3981 4326 
L 4032 2976 
L 3885 2976 
Q 3680 3475 3430 3718 
Q 3059 4070 2496 4070 
Q 1856 4070 1427 3629 
Q 934 3136 934 2074 
Q 934 1190 1395 678 
Q 1856 166 2618 166 
Q 2982 166 3225 281 
Q 3469 397 3469 557 
L 3469 1562 
Q 3469 1933 3376 2025 
Q 3283 2118 2899 2150 
L 2899 2266 
L 4538 2266 
z
" transform="scale(0.015625)"/>
      <path id="STIXGeneral-Regular-61" d="M 2829 422 
L 2829 243 
Q 2586 -64 2253 -64 
Q 1888 -64 1843 403 
L 1837 403 
Q 1427 -64 909 -64 
Q 608 -64 422 112 
Q 237 288 237 602 
Q 237 1050 685 1350 
Q 992 1555 1837 1869 
L 1837 2214 
Q 1837 2502 1699 2646 
Q 1562 2790 1338 2790 
Q 1146 2790 1018 2697 
Q 890 2605 890 2477 
Q 890 2419 909 2348 
Q 928 2278 928 2208 
Q 928 2112 841 2029 
Q 755 1946 634 1946 
Q 525 1946 441 2029 
Q 358 2112 358 2240 
Q 358 2547 685 2752 
Q 986 2944 1421 2944 
Q 1939 2944 2176 2656 
Q 2291 2522 2323 2384 
Q 2355 2246 2355 1946 
L 2355 723 
Q 2355 301 2554 301 
Q 2682 301 2829 422 
z
M 1837 813 
L 1837 1715 
Q 1248 1510 1018 1293 
Q 800 1094 800 800 
Q 800 557 921 432 
Q 1043 307 1242 307 
Q 1453 307 1613 410 
Q 1747 506 1792 589 
Q 1837 672 1837 813 
z
" transform="scale(0.015625)"/>
     </defs>
     <use xlink:href="#STIXGeneral-Regular-53"/>
     <use xlink:href="#STIXGeneral-Regular-69" transform="translate(55.599991 0)"/>
     <use xlink:href="#STIXGeneral-Regular-6d" transform="translate(83.399979 0)"/>
     <use xlink:href="#STIXGeneral-Regular-70" transform="translate(161.199966 0)"/>
     <use xlink:href="#STIXGeneral-Regular-6c" transform="translate(211.199951 0)"/>
     <use xlink:href="#STIXGeneral-Regular-65" transform="translate(238.999939 0)"/>
     <use xlink:href="#STIXGeneral-Regular-20" transform="translate(283.399933 0)"/>
     <use xlink:href="#STIXGeneral-Regular-54" transform="translate(308.399918 0)"/>
     <use xlink:href="#STIXGeneral-Regular-68" transform="translate(369.499908 0)"/>
     <use xlink:href="#STIXGeneral-Regular-72" transform="translate(419.499893 0)"/>
     <use xlink:href="#STIXGeneral-Regular-65" transform="translate(452.799881 0)"/>
     <use xlink:href="#STIXGeneral-Regular-65" transform="translate(497.199875 0)"/>
     <use xlink:href="#STIXGeneral-Regular-2d" transform="translate(541.599869 0)"/>
     <use xlink:href="#STIXGeneral-Regular-4e" transform="translate(574.899857 0)"/>
     <use xlink:href="#STIXGeneral-Regular-6f" transform="translate(647.099838 0)"/>
     <use xlink:href="#STIXGeneral-Regular-64" transform="translate(697.099823 0)"/>
     <use xlink:href="#STIXGeneral-Regular-65" transform="translate(747.099808 0)"/>
     <use xlink:href="#STIXGeneral-Regular-20" transform="translate(791.499802 0)"/>
     <use xlink:href="#STIXGeneral-Regular-47" transform="translate(816.499786 0)"/>
     <use xlink:href="#STIXGeneral-Regular-72" transform="translate(888.699768 0)"/>
     <use xlink:href="#STIXGeneral-Regular-61" transform="translate(921.999756 0)"/>
     <use xlink:href="#STIXGeneral-Regular-70" transform="translate(966.39975 0)"/>
     <use xlink:href="#STIXGeneral-Regular-68" transform="translate(1016.399734 0)"/>
    </g>
   </g>
  </g>
 </g>
 <defs>
  <clipPath id="p1bf6b238b0">
   <rect x="7.2" y="21.395625" width="549.883774" height="505.056292"/>
  </clipPath>
 </defs>
</svg>
